# xmcd
#
# Track frame offsets:
#	150
#	16340
#	46112
#	64712
#	81182
#	97950
#	139222
#	166431
#	180164
#
# Disc length: 2755 seconds
#
# Revision: 1
# Processed by: cddbd v1.5.2PL0 Copyright (c) Steve Scherf et al.
# Submitted via: audiograbber 1.83.01
#
DISCID=660ac109
DTITLE=Calexico - Hot Rail (Deluxe Limited Edition) [CD 2: Bonus CD)
DYEAR=2010
DGENRE=Alternative Country
TTITLE0=Crystal Frontier (Acoustic)
TTITLE1=Crystal Frontier (Buscemi Instrumental Remix)
TTITLE2=Untitled III (Virus Style Mix swordmen Mix)
TTITLE3=Crooked Road And The Briar
TTITLE4=Banderilla
TTITLE5=Dia De Los Muertos
TTITLE6=Chach (Tasha Bundy Remix)
TTITLE7=Still Missing
TTITLE8=Triple T Truckstop
EXTD=
EXTT0=
EXTT1=
EXTT2=
EXTT3=
EXTT4=
EXTT5=
EXTT6=
EXTT7=
EXTT8=
PLAYORDER=
